<svg class="transition-all" xmlns="http://www.w3.org/2000/svg" width="102.452" height="26.098" fill="white"><path d="M20.167 0a.712.712 0 0 0 .027.095l5.907 13.338 2.749 6.206c.019.044.036.088.054.133-.1.033-2.739.046-2.991.015l-.064-.137c-.154-.3-.3-.607-.466-.9a4.365 4.365 0 0 0-1.01-1.183 8.552 8.552 0 0 0-3.8-1.855 6.4 6.4 0 0 0-1.193-.132 14.6 14.6 0 0 0-2.324.137 6.646 6.646 0 0 0-3.185 1.393 20.658 20.658 0 0 0-1.849 1.688c-.419.421-.826.854-1.253 1.266a6.078 6.078 0 0 1-2.2 1.4 5.359 5.359 0 0 1-4.048-.185 5.825 5.825 0 0 1-1.5-.946c-.054-.047-.106-.1-.173-.16l1.83-2.034c.039.032.076.06.11.09a3.494 3.494 0 0 0 .766.516 2.539 2.539 0 0 0 2.394 0 3.583 3.583 0 0 0 1.465-1.321c.456-.746.872-1.513 1.278-2.287 1.565-2.977 3.04-6 4.49-9.033.51-1.066 1-2.14 1.5-3.211a6.054 6.054 0 0 1 1.252-1.83 3.632 3.632 0 0 1 1.7-.975c.116-.027.233-.052.349-.078Zm3 13.663c-.039-.164-4.061-9.19-4.14-9.287-1.43 3.062-2.885 6.1-4.4 9.122.025.006.035.012.042.01a2.56 2.56 0 0 0 .124-.04 9.458 9.458 0 0 1 1.508-.4 15.385 15.385 0 0 1 2.418-.228 10.88 10.88 0 0 1 1.647.066 10.392 10.392 0 0 1 2.676.717c.04.013.08.024.125.037ZM102.456 15.004c-.009.081-.025.161-.027.242a5.854 5.854 0 0 1-.45 2.14 4.185 4.185 0 0 1-2.838 2.5 6.781 6.781 0 0 1-2.381.218 5.8 5.8 0 0 1-1.638-.34 4.164 4.164 0 0 1-2.566-2.672 6.079 6.079 0 0 1-.325-1.671q-.028-.506-.028-1.013V7.793h2.773V14.672a4.68 4.68 0 0 0 .15 1.3 3.48 3.48 0 0 0 .244.632 1.816 1.816 0 0 0 1.255.965 3 3 0 0 0 1.392 0 1.9 1.9 0 0 0 1.317-1.061 3.331 3.331 0 0 0 .312-1.168c.025-.259.035-.52.035-.78v-4.011a2.767 2.767 0 0 1 1.906-2.633 2.609 2.609 0 0 1 .868-.135Z"/><path d="M6.492 26.099a1.987 1.987 0 0 0-.2-.027A8.976 8.976 0 0 1 1.13 24.26c-.363-.271-.7-.572-1.055-.859-.019-.015-.04-.027-.076-.051l1.845-2.042.123.1a9.652 9.652 0 0 0 1.4 1.051 6.044 6.044 0 0 0 2.55.837 6.983 6.983 0 0 0 2.09-.075 6.051 6.051 0 0 0 2.217-.958 13.03 13.03 0 0 0 1.723-1.456c.565-.548 1.123-1.1 1.7-1.64a9.05 9.05 0 0 1 2-1.444 5.858 5.858 0 0 1 2.192-.649c.149-.013.3-.013.448-.018a.3.3 0 0 1 .063.014v2.711a.476.476 0 0 1-.084.017 3.253 3.253 0 0 0-1.7.553 8.968 8.968 0 0 0-1.388 1.134c-.557.535-1.1 1.082-1.662 1.614a12.832 12.832 0 0 1-2.272 1.763 8.434 8.434 0 0 1-3.212 1.136c-.262.036-.528.047-.792.071-.066.006-.133.019-.2.028ZM71.721 19.749V.574c.309-.025.616-.008.921-.011s.608 0 .913 0h.934v8.569c.063-.054.1-.084.138-.118a6.158 6.158 0 0 1 1.292-.95 5.007 5.007 0 0 1 2.2-.594 5.906 5.906 0 0 1 2.6.455 5.688 5.688 0 0 1 2.919 2.792 6.723 6.723 0 0 1 .676 2.557 6.831 6.831 0 0 1-.471 3.121 5.716 5.716 0 0 1-3.476 3.369 5.556 5.556 0 0 1-1.8.311 5.734 5.734 0 0 1-1.939-.278 5.412 5.412 0 0 1-1.915-1.167c-.057-.052-.114-.1-.172-.155-.006-.005-.017-.005-.047-.014V19.754c-.164.036-2.664.03-2.773-.005Zm9.8-5.855a4.889 4.889 0 0 0-.271-1.722 3.211 3.211 0 0 0-1.958-2.02 3.812 3.812 0 0 0-2-.165 3.312 3.312 0 0 0-2.6 1.988 4.247 4.247 0 0 0 .018 3.606 3.323 3.323 0 0 0 1.752 1.731 3.636 3.636 0 0 0 1.854.28 3.332 3.332 0 0 0 2.643-1.657 3.957 3.957 0 0 0 .558-2.042ZM39.149 25.907v-7.383l-.028-.016c-.041.036-.083.071-.123.108a5.814 5.814 0 0 1-1.4.991 5.131 5.131 0 0 1-1.861.5 5.894 5.894 0 0 1-2.455-.286 5.666 5.666 0 0 1-3.223-2.8 6.508 6.508 0 0 1-.736-2.643 7.063 7.063 0 0 1 .469-3.151 5.811 5.811 0 0 1 2.642-3.041 5.7 5.7 0 0 1 2.474-.69 5.24 5.24 0 0 1 2.256.345 5.787 5.787 0 0 1 1.743 1.124l.192.176c.006.005.017.005.042.013a4.14 4.14 0 0 0 .008-.428v-.875h2.765v18.054Zm-7.03-11.969c.008.1.017.3.039.489a3.72 3.72 0 0 0 .588 1.663 3.324 3.324 0 0 0 3.278 1.54 3.385 3.385 0 0 0 2.281-1.221 3.931 3.931 0 0 0 .862-3.785 3.528 3.528 0 0 0-4.324-2.571 3.369 3.369 0 0 0-2.214 1.711 4.335 4.335 0 0 0-.51 2.174ZM66.391 9.105c.018-.435 0-.866.013-1.3h2.753v11.962h-2.742a1.968 1.968 0 0 1-.017-.431v-.899c-.06.051-.1.078-.128.109a6.5 6.5 0 0 1-1.248.936 5.154 5.154 0 0 1-3.028.627 5.7 5.7 0 0 1-2.161-.6 5.805 5.805 0 0 1-2.773-3.07 7.012 7.012 0 0 1-.5-2.872 6.528 6.528 0 0 1 .676-2.82 5.6 5.6 0 0 1 4-3.135 5.533 5.533 0 0 1 3.591.39 5.617 5.617 0 0 1 1.407.984l.118.107c.001.003.012.004.039.012Zm.185 4.723a4.445 4.445 0 0 0-.2-1.337 3.487 3.487 0 0 0-2-2.255 3.667 3.667 0 0 0-1.944-.247 3.311 3.311 0 0 0-2.111 1.1 3.759 3.759 0 0 0-.927 2.128 4.662 4.662 0 0 0 .311 2.37 3.189 3.189 0 0 0 1.951 1.877 3.835 3.835 0 0 0 1.842.158 3.368 3.368 0 0 0 2.323-1.381 4.04 4.04 0 0 0 .755-2.413ZM44.374 7.85h2.763v6.848a5.183 5.183 0 0 0 .171 1.418 2.479 2.479 0 0 0 .4.831 1.84 1.84 0 0 0 1.088.693 3.008 3.008 0 0 0 1.378 0 1.923 1.923 0 0 0 1.395-1.213 3.984 3.984 0 0 0 .273-1.384c.008-.212.011-.425.011-.637V7.877c.106-.037 2.524-.05 2.765-.016 0 .043.008.09.008.136v6.792a7.141 7.141 0 0 1-.337 2.281 4.274 4.274 0 0 1-1.8 2.357 4.689 4.689 0 0 1-1.64.628 6.944 6.944 0 0 1-3.142-.1 4.15 4.15 0 0 1-2.5-1.786 5.093 5.093 0 0 1-.68-1.712 7.762 7.762 0 0 1-.163-1.625V8.054ZM89.441 19.77h-2.727a.11.11 0 0 1-.017-.013.024.024 0 0 1-.007-.012.417.417 0 0 1-.01-.071V.644a.314.314 0 0 1 .009-.054c.108-.034 2.6-.04 2.751-.006Z"/></svg>