<svg xmlns="http://www.w3.org/2000/svg" version="1.0" fill="white" width="1024" height="414" viewBox="-2.042 -2.042 178.376 72.147"><path d="M76.19 32.709c-3.452-3.37-8.186-5.47-13.37-5.47H26.088l13.584-13.62h34.56c1.459.024 2.823.665 3.784 1.626L98.08 35.366c3.452 3.358 8.174 5.47 13.394 5.47h36.767l-13.608 13.62h-34.524a5.54 5.54 0 0 1-3.797-1.673L76.19 32.709zm10.5 29.73c3.416 3.453 8.162 5.624 13.418 5.624h40.123l34.062-34.025L140.23 0H121l27.24 27.24h-36.767c-1.447 0-2.8-.582-3.749-1.507L87.64 5.647C84.199 2.16 79.464.012 74.232 0H34.05L0 34.038l34.05 34.025h19.243L26.089 40.836h36.73c1.46 0 2.777.58 3.75 1.53l20.12 20.074" style="fill:#fff;fill-opacity:1;fill-rule:evenodd;stroke:none"/></svg>