<svg xmlns="http://www.w3.org/2000/svg" width="510.019" height="200.043"><path d="M0 0c2.492 0 3.846 1.654 3.846 3.976v11.842h5.3V3.712C9.094-1.618 4.825-3.71 0-3.71c-4.825 0-9.094 2.092-9.147 7.422v12.106h5.301V3.976C-3.846 1.654-2.492 0 0 0" style="fill:#00aeef;fill-opacity:1;fill-rule:nonzero;stroke:none" transform="matrix(5.12039 0 0 -5.12039 148.559 180.031)"/><path d="M0 0c.018 2.075 1.274 3.95 3.37 3.95 2.438 0 3.391-1.671 3.391-3.95H0zm9.414-1.75v1.247c0 3.684-2.086 6.283-5.86 6.283-4.214 0-6.177-3.261-6.177-7.158 0-3.924 1.698-6.945 5.966-6.945 3.181 0 5.514 1.509 5.912 4.532h-2.65C6.312-5.726 5.332-6.494 3.37-6.494.797-6.494-.057-4.206-.057-1.75h9.471z" style="fill:#000;fill-opacity:1;fill-rule:nonzero;stroke:none" transform="matrix(5.12039 0 0 -5.12039 328.387 156.426)"/><path d="M442.537 436.932h-10.323v-78.383h10.323v78.383z" style="fill:#000;fill-opacity:1;fill-rule:nonzero;stroke:none" transform="matrix(1.25 0 0 -1.25 -148.038 645.203)"/><path d="M0 0h5.301v15.421h5.938v3.712H-5.938v-3.712H0V0z" style="fill:#000;fill-opacity:1;fill-rule:nonzero;stroke:none" transform="matrix(5.12039 0 0 -5.12039 31.405 197.01)"/><path d="M0 0c-1.292-.406-2.626-.081-2.623 1.649.002 2.636 6.193 4.846 7.051 7.149.213.574.226 1.047-.049 1.032-.197-.011-.043-.297-.476-.732C1.338 6.533-2.958 6.537-6.255 5.06c-2.162-.971-8.498-3.952-7.04-10.603.07-.315.258-1.374.452-1.374.224 0 .222.629.216 1.393-.048 3.96 4.641 5.064 6.167 7.651.182.31.498.744.573.542.036-.097.013-.241-.049-.516-.478-2.126-2.701-3.491-2.071-5.01.816-1.973 3.174-.502 3.897.766.194.349.303.572.433.527.097-.034.094-.435.033-.795-.387-2.288-.913-3.573-2.588-4.875-.535-.417-1.378-.504-1.267-.824.028-.083.391-.074.68-.045C-2.36-7.818 1.37-2.56 2.358.874c.103.242.135.469.025.554-.134.104-.33-.135-.529-.311C1.344.669.645.203 0 0" style="fill:#000;fill-opacity:1;fill-rule:nonzero;stroke:none" transform="matrix(5.12039 0 0 -5.12039 96.602 51.335)"/><path d="M0 0v11.551h3.072v1.752H0v2.148c0 1.538.74 1.802 2.174 1.802.422 0 .847-.055 1.271-.078v2.091c-.59.134-1.191.265-1.803.265-2.384 0-4.162-1.195-4.162-3.742v-2.486h-2.595v-1.752h2.595V0H0z" style="fill:#000;fill-opacity:1;fill-rule:nonzero;stroke:none" transform="matrix(5.12039 0 0 -5.12039 445.557 197.01)"/><path d="M0 0v-1.752h2.28v-8.478c0-1.77.025-3.47 3.766-3.47.582 0 1.129.054 1.721.158v1.935a6.14 6.14 0 0 0-1.325-.16c-.902 0-1.642.453-1.642 1.405v8.61h3.074V0H4.8v3.631l-2.52-.795V-.002L0 0z" style="fill:#000;fill-opacity:1;fill-rule:nonzero;stroke:none" transform="matrix(5.12039 0 0 -5.12039 468.7 128.894)"/><path d="M0 0h6.573c8.184 0 9.043 6.926 9.043 9.566 0 2.638-.859 9.568-9.043 9.568H0V0zm2.655 16.856h3.919c4.423 0 6.258-3.337 6.258-7.29 0-3.954-1.835-7.288-6.258-7.288H2.655v14.578z" style="fill:#000;fill-opacity:1;fill-rule:nonzero;stroke:none" transform="matrix(5.12039 0 0 -5.12039 222.533 197.01)"/></svg>