<svg class="w-full left-0 z-30 relative" xmlns="http://www.w3.org/2000/svg" viewBox="0 0 960 47.7" style="enable-background:new 0 0 960 47.7" xml:space="preserve"><path d="m0 18.7 13.3.2c13.4.1 40 .5 66.7-2.7s53.3-9.8 80-11 53.3 3.2 80 4.3c26.7 1.2 53.3-.8 80 .5 26.7 1.4 53.3 6 80 6.2s53.3-4.2 80-6.8c26.7-2.7 53.3-3.7 80-2.2s53.3 5.5 80 4.7c26.7-.9 53.3-6.5 80-7.2s53.3 3.7 80 6 53.3 2.7 80 .7 53.3-6.4 66.7-8.5L960 .7v47H0v-29z" style="fill:#ae9474"/><path d="m0 11.3 13.3-.2c13.4-.1 40-.5 66.7 1.4 26.7 1.8 53.3 5.8 80 7.5 26.7 1.6 53.3 1 80 1.6 26.7.7 53.3 2.7 80 3.2s53.3-.5 80-3.3c26.7-2.9 53.3-7.5 80-8.5s53.3 1.6 80 3.6 53.3 3.4 80 1.9 53.3-5.9 80-7c26.7-1.2 53.3.8 80 3.8s53.3 7 80 8.7c26.7 1.6 53.3 1 66.7.6l13.3-.3v23H0v-36z" style="fill:#9d8066"/><path d="m0 29.7 13.3-1.5c13.4-1.5 40-4.5 66.7-4.5s53.3 3 80 3.8c26.7.9 53.3-.5 80-1.6 26.7-1.2 53.3-2.2 80-2.7s53.3-.5 80-.8c26.7-.4 53.3-1 80-.5s53.3 2.1 80 2.1 53.3-1.6 80-1.1 53.3 3.1 80 4.6 53.3 1.9 80 1.4 53.3-1.9 80-1.4 53.3 2.9 66.7 4l13.3 1.2v15H0v-18z" style="fill:#8c6d57"/><path d="m0 34.1 13.3.2c13.4.1 40 .5 66.7-.2s53.3-2.3 80-2.2c26.7.2 53.3 2.2 80 3.2s53.3 1 80 .2c26.7-.9 53.3-2.5 80-3.7s53.3-1.8 80-2 53.3.2 80 2 53.3 5.2 80 5 53.3-3.8 80-5.3 53.3-.9 80-.9 53.3-.6 80-.3 53.3 1.7 66.7 2.3l13.3.7v15H0v-14z" style="fill:#7b5949"/></svg>